<svg xmlns = "http://www.w3.org/2000/svg">
<g>
<g>
<!-- Faisceau -->
<g>
<rect x="50.0" y="70.58823529411765" width="100.0" height="29.411764705882355" fill="blue" stroke="black" />
<rect x="50.0" y="11.764705882352942" width="100.0" height="58.82352941176471" fill="red" stroke="black" />
<rect x="50.0" y="-76.47058823529412" width="100.0" height="88.23529411764706" fill="green" stroke="black" />
<rect x="50.0" y="-100.0" width="100.0" height="23.52941176470588" fill="purple" stroke="black" />
</g>
<!-- Faisceau -->
<g>
<rect x="200.0" y="41.86046511627907" width="100.0" height="58.139534883720934" fill="blue" stroke="black" />
<rect x="200.0" y="6.97674418604651" width="100.0" height="34.883720930232556" fill="red" stroke="black" />
<rect x="200.0" y="-67.44186046511629" width="100.0" height="74.4186046511628" fill="green" stroke="black" />
<rect x="200.0" y="-100.0" width="100.0" height="32.55813953488372" fill="purple" stroke="black" />
</g>
<!-- Faisceau -->
<g>
<rect x="350.0" y="70.0" width="100.0" height="30.0" fill="blue" stroke="black" />
<rect x="350.0" y="-46.66666666666667" width="100.0" height="116.66666666666667" fill="red" stroke="black" />
<rect x="350.0" y="-80.0" width="100.0" height="33.33333333333333" fill="green" stroke="black" />
<rect x="350.0" y="-100.0" width="100.0" height="20.0" fill="purple" stroke="black" />
</g>
</g>
<g>
<rect x="141.0" y="137.5" width="30.0" height="15.0" fill="blue" stroke="black" />
<rect x="237.0" y="137.5" width="30.0" height="15.0" fill="red" stroke="black" />
<rect x="333.0" y="137.5" width="30.0" height="15.0" fill="green" stroke="black" />
<rect x="429.0" y="137.5" width="30.0" height="15.0" fill="purple" stroke="black" />
<rect x="525.0" y="137.5" width="30.0" height="15.0" fill="yellow" stroke="black" />
<rect x="621.0" y="137.5" width="30.0" height="15.0" fill="black" stroke="black" />
<rect x="717.0" y="137.5" width="30.0" height="15.0" fill="white" stroke="black" />
<rect x="813.0" y="137.5" width="30.0" height="15.0" fill="blue" stroke="black" />
<rect x="909.0" y="137.5" width="30.0" height="15.0" fill="red" stroke="black" />
<rect x="1005.0" y="137.5" width="30.0" height="15.0" fill="green" stroke="black" />
<rect x="1101.0" y="137.5" width="30.0" height="15.0" fill="purple" stroke="black" />
<rect x="1197.0" y="137.5" width="30.0" height="15.0" fill="yellow" stroke="black" />
<rect x="1293.0" y="137.5" width="30.0" height="15.0" fill="black" stroke="black" />
<rect x="1389.0" y="137.5" width="30.0" height="15.0" fill="white" stroke="black" />
<rect x="1485.0" y="137.5" width="30.0" height="15.0" fill="blue" stroke="black" />
<rect x="140.0" y="167.5" width="30.0" height="15.0" fill="red" stroke="black" />
<rect x="236.0" y="167.5" width="30.0" height="15.0" fill="green" stroke="black" />
<rect x="332.0" y="167.5" width="30.0" height="15.0" fill="purple" stroke="black" />
<rect x="428.0" y="167.5" width="30.0" height="15.0" fill="yellow" stroke="black" />
<rect x="524.0" y="167.5" width="30.0" height="15.0" fill="black" stroke="black" />
<rect x="620.0" y="167.5" width="30.0" height="15.0" fill="white" stroke="black" />
<rect x="716.0" y="167.5" width="30.0" height="15.0" fill="blue" stroke="black" />
<rect x="812.0" y="167.5" width="30.0" height="15.0" fill="red" stroke="black" />
<rect x="908.0" y="167.5" width="30.0" height="15.0" fill="green" stroke="black" />
<rect x="1004.0" y="167.5" width="30.0" height="15.0" fill="purple" stroke="black" />
<rect x="1100.0" y="167.5" width="30.0" height="15.0" fill="yellow" stroke="black" />
<rect x="1196.0" y="167.5" width="30.0" height="15.0" fill="black" stroke="black" />
<rect x="1292.0" y="167.5" width="30.0" height="15.0" fill="white" stroke="black" />
<rect x="1388.0" y="167.5" width="30.0" height="15.0" fill="blue" stroke="black" />
<rect x="1484.0" y="167.5" width="30.0" height="15.0" fill="red" stroke="black" />
<rect x="140.0" y="197.5" width="30.0" height="15.0" fill="green" stroke="black" />
<rect x="236.0" y="167.5" width="30.0" height="15.0" fill="purple" stroke="black" />
</g>
<g>
<text x="115.0" y="150.0" font-size="12" text-anchor="middle" fill="white" stroke="black" >test1</text>
<text x="211.0" y="150.0" font-size="12" text-anchor="middle" fill="white" stroke="black" >test2</text>
<text x="307.0" y="150.0" font-size="12" text-anchor="middle" fill="white" stroke="black" >test3</text>
<text x="403.0" y="150.0" font-size="12" text-anchor="middle" fill="white" stroke="black" >test4</text>
<text x="499.0" y="150.0" font-size="12" text-anchor="middle" fill="white" stroke="black" >test5</text>
<text x="595.0" y="150.0" font-size="12" text-anchor="middle" fill="white" stroke="black" >test6</text>
<text x="691.0" y="150.0" font-size="12" text-anchor="middle" fill="white" stroke="black" >test7</text>
<text x="787.0" y="150.0" font-size="12" text-anchor="middle" fill="white" stroke="black" >test8</text>
<text x="883.0" y="150.0" font-size="12" text-anchor="middle" fill="white" stroke="black" >test1</text>
<text x="979.0" y="150.0" font-size="12" text-anchor="middle" fill="white" stroke="black" >test2</text>
<text x="1075.0" y="150.0" font-size="12" text-anchor="middle" fill="white" stroke="black" >test3</text>
<text x="1171.0" y="150.0" font-size="12" text-anchor="middle" fill="white" stroke="black" >test4</text>
<text x="1267.0" y="150.0" font-size="12" text-anchor="middle" fill="white" stroke="black" >test5</text>
<text x="1363.0" y="150.0" font-size="12" text-anchor="middle" fill="white" stroke="black" >test6</text>
<text x="1459.0" y="150.0" font-size="12" text-anchor="middle" fill="white" stroke="black" >test7</text>
<text x="114.0" y="180.0" font-size="12" text-anchor="middle" fill="white" stroke="black" >test8</text>
<text x="210.0" y="180.0" font-size="12" text-anchor="middle" fill="white" stroke="black" >test1</text>
<text x="306.0" y="180.0" font-size="12" text-anchor="middle" fill="white" stroke="black" >test2</text>
<text x="402.0" y="180.0" font-size="12" text-anchor="middle" fill="white" stroke="black" >test3</text>
<text x="498.0" y="180.0" font-size="12" text-anchor="middle" fill="white" stroke="black" >test4</text>
<text x="594.0" y="180.0" font-size="12" text-anchor="middle" fill="white" stroke="black" >test5</text>
<text x="690.0" y="180.0" font-size="12" text-anchor="middle" fill="white" stroke="black" >test6</text>
<text x="786.0" y="180.0" font-size="12" text-anchor="middle" fill="white" stroke="black" >test7</text>
<text x="882.0" y="180.0" font-size="12" text-anchor="middle" fill="white" stroke="black" >test8</text>
<text x="978.0" y="180.0" font-size="12" text-anchor="middle" fill="white" stroke="black" >test1</text>
<text x="1074.0" y="180.0" font-size="12" text-anchor="middle" fill="white" stroke="black" >test2</text>
<text x="1170.0" y="180.0" font-size="12" text-anchor="middle" fill="white" stroke="black" >test3</text>
<text x="1266.0" y="180.0" font-size="12" text-anchor="middle" fill="white" stroke="black" >test4</text>
<text x="1362.0" y="180.0" font-size="12" text-anchor="middle" fill="white" stroke="black" >test5</text>
<text x="1458.0" y="180.0" font-size="12" text-anchor="middle" fill="white" stroke="black" >test6</text>
<text x="114.0" y="210.0" font-size="12" text-anchor="middle" fill="white" stroke="black" >test7</text>
<text x="210.0" y="180.0" font-size="12" text-anchor="middle" fill="white" stroke="black" >test8</text>
<text x="100.0" y="120.0" font-size="12" text-anchor="middle" fill="white" stroke="black" >1652</text>
<text x="250.0" y="120.0" font-size="12" text-anchor="middle" fill="white" stroke="black" >1924</text>
<text x="400.0" y="120.0" font-size="12" text-anchor="middle" fill="white" stroke="black" >2000</text>
</g>
<g>
<text x="250.0" y="-120.0" font-size="27" text-anchor="middle" fill="black" stroke="black" >TEST</text>
</g>
</g>
</svg>
